<svg width="19" height="27" viewBox="0 0 19 27" fill="none" xmlns="http://www.w3.org/2000/svg">
<path d="M18.253 10.4453L9.92389 0.381894C9.92389 0.381894 9.24112 -0.419088 8.52482 0.298973C7.54035 1.2852 0.455021 10.6888 0.455021 10.6888C0.455021 10.6888 -0.802907 11.9379 0.864334 11.9379C2.53687 11.9379 5.19916 11.9379 5.19916 11.9379C5.19916 11.9379 5.19916 12.663 5.19916 13.7727C5.19916 17.1937 5.19916 23.8538 5.19916 26.405C5.19916 26.405 5.17975 27.0013 5.95427 27.0013C6.72526 27.0013 11.4747 27.0013 12.558 27.0013C13.6359 27.0013 13.4507 26.2885 13.4507 26.2885C13.4507 23.6703 13.4507 17.229 13.4507 13.6845C13.4507 12.4478 13.4507 11.638 13.4507 11.638C13.4507 11.638 16.7728 11.638 18.1437 11.638C19.5145 11.638 18.253 10.4453 18.253 10.4453Z" fill="#FF0101"/>
</svg>
