<svg width="19" height="27" viewBox="0 0 19 27" fill="none" xmlns="http://www.w3.org/2000/svg">
<path d="M0.529615 16.556L8.85876 26.6194C8.85876 26.6194 9.54154 27.4204 10.2578 26.7023C11.2423 25.7161 18.3276 16.3125 18.3276 16.3125C18.3276 16.3125 19.5856 15.0634 17.9183 15.0634C16.2458 15.0634 13.5835 15.0634 13.5835 15.0634C13.5835 15.0634 13.5835 14.3383 13.5835 13.2285C13.5835 9.8076 13.5835 3.14746 13.5835 0.596315C13.5835 0.596315 13.6029 -1.14441e-05 12.8284 -1.14441e-05C12.0574 -1.14441e-05 7.30797 -1.14441e-05 6.2247 -1.14441e-05C5.14673 -1.14441e-05 5.33197 0.712757 5.33197 0.712757C5.33197 3.33094 5.33197 9.77231 5.33197 13.3167C5.33197 14.5535 5.33197 15.3633 5.33197 15.3633C5.33197 15.3633 2.00984 15.3633 0.639002 15.3633C-0.73184 15.3633 0.529615 16.556 0.529615 16.556Z" fill="#28D10C"/>
</svg>
