<svg width="44" height="44" viewBox="0 0 44 44" fill="none" xmlns="http://www.w3.org/2000/svg">
<path d="M22 33C28.05 33 33 28.05 33 22C33 15.95 28.05 11 22 11C15.95 11 11 15.95 11 22C11 28.05 15.95 33 22 33ZM22 13.75C26.5375 13.75 30.25 17.4625 30.25 22C30.25 26.5375 26.5375 30.25 22 30.25C17.4625 30.25 13.75 26.5375 13.75 22C13.75 17.4625 17.4625 13.75 22 13.75Z" fill="white"/>
<path d="M22 8.25C22.7562 8.25 23.375 7.63125 23.375 6.875V1.375C23.375 0.61875 22.7562 0 22 0C21.2437 0 20.625 0.61875 20.625 1.375V6.875C20.625 7.63125 21.2437 8.25 22 8.25Z" fill="white"/>
<path d="M23.375 42.625V37.125C23.375 36.3687 22.7562 35.75 22 35.75C21.2437 35.75 20.625 36.3687 20.625 37.125V42.625C20.625 43.3812 21.2437 44 22 44C22.7562 44 23.375 43.3812 23.375 42.625Z" fill="white"/>
<path d="M42.625 20.625H37.125C36.3687 20.625 35.75 21.2437 35.75 22C35.75 22.7562 36.3687 23.375 37.125 23.375H42.625C43.3812 23.375 44 22.7562 44 22C44 21.2437 43.3812 20.625 42.625 20.625Z" fill="white"/>
<path d="M1.375 23.375H6.875C7.63125 23.375 8.25 22.7562 8.25 22C8.25 21.2437 7.63125 20.625 6.875 20.625H1.375C0.61875 20.625 0 21.2437 0 22C0 22.7562 0.61875 23.375 1.375 23.375Z" fill="white"/>
<path d="M10.3125 12.3062C10.5875 12.5812 10.9313 12.7188 11.275 12.7188C11.6188 12.7188 11.9625 12.5812 12.2375 12.3062C12.7875 11.7562 12.7875 10.9312 12.2375 10.3812L8.31876 6.4625C7.76876 5.9125 6.94376 5.9125 6.39376 6.4625C5.84376 7.0125 5.84376 7.8375 6.39376 8.3875L10.3125 12.3062Z" fill="white"/>
<path d="M33.6875 31.6938C33.1375 31.1438 32.3125 31.1438 31.7625 31.6938C31.2125 32.2438 31.2125 33.0688 31.7625 33.6188L35.6812 37.5375C35.9562 37.8125 36.3 37.95 36.6437 37.95C36.9875 37.95 37.3312 37.8125 37.6062 37.5375C38.1562 36.9875 38.1562 36.1625 37.6062 35.6125L33.6875 31.6938Z" fill="white"/>
<path d="M32.725 12.65C33.0687 12.65 33.4125 12.5125 33.6875 12.2375L37.6063 8.31875C38.1563 7.76875 38.1563 6.94375 37.6063 6.39375C37.0563 5.84375 36.2313 5.84375 35.6813 6.39375L31.6938 10.3125C31.1438 10.8625 31.1438 11.6875 31.6938 12.2375C31.9688 12.5125 32.3125 12.65 32.725 12.65Z" fill="white"/>
<path d="M10.3125 31.6937L6.39376 35.6125C5.84376 36.1625 5.84376 36.9875 6.39376 37.5375C6.66876 37.8125 7.01251 37.95 7.35626 37.95C7.70001 37.95 8.04376 37.8125 8.31876 37.5375L12.2375 33.6187C12.7875 33.0687 12.7875 32.2437 12.2375 31.6937C11.7563 31.2125 10.8625 31.2125 10.3125 31.6937Z" fill="white"/>
</svg>
